<svg width="10" height="9" viewBox="0 0 10 9" fill="none" xmlns="http://www.w3.org/2000/svg">
<path d="M5.03906 4.70508L3.66211 7.24219C3.60352 7.35156 3.5332 7.44336 3.45117 7.51758C3.36914 7.58789 3.25586 7.62305 3.11133 7.62305C2.97852 7.62305 2.86719 7.58594 2.77734 7.51172C2.69141 7.4375 2.61914 7.34961 2.56055 7.24805L1.10742 4.75195C1.13086 5.2793 1.15234 5.76562 1.17188 6.21094C1.17969 6.40234 1.1875 6.59375 1.19531 6.78516C1.20312 6.97656 1.21094 7.1543 1.21875 7.31836C1.22656 7.48242 1.23242 7.62891 1.23633 7.75781C1.24414 7.88281 1.25 7.97461 1.25391 8.0332C1.25781 8.0918 1.25586 8.14453 1.24805 8.19141C1.24414 8.23828 1.23047 8.2793 1.20703 8.31445C1.18359 8.3457 1.15039 8.37109 1.10742 8.39062C1.06445 8.40625 1.00586 8.41406 0.931641 8.41406H0.287109C0.216797 8.41406 0.150391 8.39258 0.0878906 8.34961C0.0292969 8.30273 0 8.21289 0 8.08008V0.626953C0 0.552734 0.00976562 0.478516 0.0292969 0.404297C0.0527344 0.330078 0.0898438 0.263672 0.140625 0.205078C0.195312 0.142578 0.265625 0.09375 0.351562 0.0585938C0.4375 0.0195312 0.542969 0 0.667969 0H2.55469C2.70703 0 2.83789 0.0273438 2.94727 0.0820312C3.05664 0.132813 3.15039 0.21875 3.22852 0.339844L4.80469 2.8418L5.85938 0.820312C5.92188 0.699219 5.98242 0.589844 6.04102 0.492188C6.09961 0.390625 6.16797 0.304688 6.24609 0.234375C6.32812 0.160156 6.42773 0.103516 6.54492 0.0644531C6.66602 0.0214844 6.82031 0 7.00781 0H8.56641C8.71484 0 8.8418 0.0195312 8.94727 0.0585938C9.05664 0.0976563 9.14453 0.150391 9.21094 0.216797C9.28125 0.283203 9.33203 0.361328 9.36328 0.451172C9.39453 0.541016 9.41016 0.638672 9.41016 0.744141V7.59961C9.41016 7.7207 9.40039 7.83203 9.38086 7.93359C9.36133 8.03125 9.32031 8.11719 9.25781 8.19141C9.19922 8.26172 9.11328 8.31641 9 8.35547C8.89062 8.39453 8.74609 8.41406 8.56641 8.41406H5.85938C5.69922 8.41406 5.56641 8.39648 5.46094 8.36133C5.35547 8.32617 5.27148 8.27539 5.20898 8.20898C5.14648 8.14258 5.10156 8.05859 5.07422 7.95703C5.05078 7.85547 5.03906 7.73633 5.03906 7.59961V4.70508ZM2.79492 0.65625C2.74805 0.578125 2.69531 0.53125 2.63672 0.515625C2.58203 0.5 2.52344 0.492188 2.46094 0.492188H2.16797L4.27734 3.84375L4.51758 3.39258L2.79492 0.65625ZM8.91211 0.867188C8.91211 0.78125 8.90625 0.712891 8.89453 0.662109C8.88281 0.611328 8.85938 0.574219 8.82422 0.550781C8.78906 0.523438 8.74219 0.507812 8.68359 0.503906C8.625 0.496094 8.54883 0.492188 8.45508 0.492188V7.92188C8.54883 7.92188 8.625 7.91992 8.68359 7.91602C8.74219 7.9082 8.78906 7.89258 8.82422 7.86914C8.85938 7.8418 8.88281 7.80469 8.89453 7.75781C8.90625 7.70703 8.91211 7.63672 8.91211 7.54688V0.867188Z" fill="#90ee90"/>
</svg>
